<svg width="2200" height="1400" viewBox="0 0 2200 1400" fill="none" xmlns="http://www.w3.org/2000/svg">
  <defs>
    <linearGradient id="bg" x1="130" y1="70" x2="2080" y2="1320" gradientUnits="userSpaceOnUse">
      <stop stop-color="#FCFAED"/>
      <stop offset="0.6" stop-color="#F3EEE2"/>
      <stop offset="1" stop-color="#ECE5D8"/>
    </linearGradient>
    <pattern id="grain" width="30" height="30" patternUnits="userSpaceOnUse">
      <path d="M30 0H0V30" fill="none" stroke="#1A1A1A" stroke-opacity="0.03"/>
    </pattern>
    <pattern id="peakStripe" width="14" height="14" patternUnits="userSpaceOnUse" patternTransform="rotate(35)">
      <rect width="14" height="14" fill="#E7D8C8"/>
      <rect width="5.3" height="14" fill="#EFDCC8"/>
    </pattern>
    <filter id="shadowDeep" x="-40%" y="-30%" width="180%" height="220%" color-interpolation-filters="sRGB">
      <feDropShadow dx="0" dy="28" stdDeviation="24" flood-color="#1A1A1A" flood-opacity="0.28"/>
    </filter>
    <filter id="shadowMid" x="-40%" y="-30%" width="180%" height="220%" color-interpolation-filters="sRGB">
      <feDropShadow dx="0" dy="20" stdDeviation="17" flood-color="#1A1A1A" flood-opacity="0.2"/>
    </filter>
    <style>
      .display { font-family: "Sora", "Avenir Next", "Segoe UI", sans-serif; }
      .ui { font-family: "Manrope", "Inter", "Segoe UI", sans-serif; }
      .mono { font-family: "JetBrains Mono", "SF Mono", Consolas, monospace; }
    </style>
  </defs>

  <rect width="2200" height="1400" fill="url(#bg)"/>
  <rect width="2200" height="1400" fill="url(#grain)"/>

  <text x="110" y="120" class="display" font-size="42" fill="#1A1A1A">FO Studio Calendar • Exploded View</text>
  <text x="112" y="165" class="ui" font-size="20" fill="#1A1A1A" fill-opacity="0.5">Perspective concept render using realistic sample data from the live booking UI</text>

  <g transform="translate(220 300) rotate(-6 920 420) skewX(-8)" filter="url(#shadowDeep)" opacity="0.62">
    <rect x="0" y="0" width="1650" height="870" rx="24" fill="#202226"/>
    <text x="52" y="78" class="display" font-size="34" fill="#FCFAED">Scheduling Engine Layer</text>
    <text x="52" y="116" class="ui" font-size="18" fill="#FCFAED" fill-opacity="0.68">Peak windows • Extension gates • Hold ownership • Credit multipliers</text>

    <rect x="52" y="156" width="1546" height="654" rx="16" fill="#FCFAED" fill-opacity="0.06" stroke="#FCFAED" stroke-opacity="0.2"/>
    <rect x="92" y="208" width="1466" height="82" rx="10" fill="#FCFAED" fill-opacity="0.09"/>
    <text x="116" y="258" class="mono" font-size="17" fill="#FCFAED" fill-opacity="0.8">rule_eval(member_pro): extension_allowed=true • hold_overlap=self • peak_multiplier=1.25x</text>

    <rect x="92" y="322" width="1466" height="426" rx="12" fill="#FCFAED" fill-opacity="0.03"/>
    <rect x="92" y="322" width="1466" height="148" fill="url(#peakStripe)" opacity="0.75"/>

    <rect x="132" y="356" width="372" height="104" rx="12" fill="#678965" fill-opacity="0.5" stroke="#8DB88B" stroke-opacity="0.4"/>
    <text x="156" y="394" class="ui" font-size="19" fill="#F5FFF5">Extension slot available</text>
    <text x="156" y="428" class="mono" font-size="15" fill="#F5FFF5">booking_id BK_8924 • +30m</text>

    <rect x="540" y="356" width="404" height="104" rx="12" fill="#AA5048" fill-opacity="0.44" stroke="#D77F76" stroke-opacity="0.35"/>
    <text x="564" y="394" class="ui" font-size="19" fill="#FFF4F2">Conflict detection</text>
    <text x="564" y="428" class="mono" font-size="15" fill="#FFF4F2">resource clash @ 15:00 blocked</text>

    <rect x="980" y="356" width="468" height="104" rx="12" fill="#E1A15E" fill-opacity="0.45" stroke="#F7C58F" stroke-opacity="0.36"/>
    <text x="1004" y="394" class="ui" font-size="19" fill="#FFF8EF">Peak pricing active</text>
    <text x="1004" y="428" class="mono" font-size="15" fill="#FFF8EF">Tue/Wed/Thu 10:00–16:00</text>
  </g>

  <g transform="translate(300 240) rotate(-4.3 880 430) skewX(-6)" filter="url(#shadowMid)" opacity="0.8">
    <rect x="0" y="0" width="1680" height="892" rx="24" fill="#F3EFE5" stroke="#1A1A1A" stroke-opacity="0.16"/>
    <text x="56" y="82" class="display" font-size="34" fill="#1A1A1A">Booking State Layer</text>
    <text x="56" y="120" class="ui" font-size="18" fill="#1A1A1A" fill-opacity="0.52">Aggregated view: bookings, holds, current-time indicator, user actions</text>

    <rect x="58" y="168" width="1564" height="668" rx="16" fill="#FCFAED" stroke="#1A1A1A" stroke-opacity="0.1"/>
    <rect x="124" y="236" width="1430" height="514" rx="12" fill="#FDF9F1" stroke="#1A1A1A" stroke-opacity="0.09"/>
    <rect x="124" y="236" width="210" height="514" fill="#F2DADF" fill-opacity="0.58"/>

    <line x1="334" y1="236" x2="334" y2="750" stroke="#1A1A1A" stroke-opacity="0.1"/>
    <line x1="538" y1="236" x2="538" y2="750" stroke="#1A1A1A" stroke-opacity="0.1"/>
    <line x1="742" y1="236" x2="742" y2="750" stroke="#1A1A1A" stroke-opacity="0.1"/>
    <line x1="946" y1="236" x2="946" y2="750" stroke="#1A1A1A" stroke-opacity="0.1"/>
    <line x1="1150" y1="236" x2="1150" y2="750" stroke="#1A1A1A" stroke-opacity="0.1"/>
    <line x1="1354" y1="236" x2="1354" y2="750" stroke="#1A1A1A" stroke-opacity="0.1"/>

    <rect x="334" y="504" width="612" height="196" fill="url(#peakStripe)" opacity="0.7"/>

    <line x1="124" y1="292" x2="1554" y2="292" stroke="#1A1A1A" stroke-opacity="0.08"/>
    <line x1="124" y1="348" x2="1554" y2="348" stroke="#1A1A1A" stroke-opacity="0.08"/>
    <line x1="124" y1="404" x2="1554" y2="404" stroke="#1A1A1A" stroke-opacity="0.08"/>
    <line x1="124" y1="460" x2="1554" y2="460" stroke="#1A1A1A" stroke-opacity="0.08"/>
    <line x1="124" y1="516" x2="1554" y2="516" stroke="#1A1A1A" stroke-opacity="0.08"/>
    <line x1="124" y1="572" x2="1554" y2="572" stroke="#1A1A1A" stroke-opacity="0.08"/>
    <line x1="124" y1="628" x2="1554" y2="628" stroke="#1A1A1A" stroke-opacity="0.08"/>
    <line x1="124" y1="684" x2="1554" y2="684" stroke="#1A1A1A" stroke-opacity="0.08"/>
    <line x1="124" y1="740" x2="1554" y2="740" stroke="#1A1A1A" stroke-opacity="0.08"/>

    <rect x="336" y="250" width="16" height="264" rx="8" fill="#F09C0B"/>
    <rect x="336" y="650" width="16" height="164" rx="8" fill="#F09C0B"/>

    <rect x="148" y="650" width="192" height="192" rx="12" fill="#70819C"/>
    <text x="162" y="676" class="ui" font-size="14" fill="#F6FAFF">Blocked</text>
    <text x="162" y="697" class="mono" font-size="12" fill="#F6FAFF">3:00pm–8:00pm</text>

    <rect x="544" y="462" width="196" height="106" rx="12" fill="#0A1431"/>
    <rect x="544" y="574" width="196" height="106" rx="12" fill="#0A1431"/>
    <rect x="544" y="686" width="196" height="106" rx="12" fill="#0A1431"/>
    <text x="560" y="494" class="ui" font-size="13" fill="#E8EEFF">Blocked</text>
    <text x="560" y="514" class="mono" font-size="11" fill="#E8EEFF">10:00am–11:00am</text>

    <rect x="744" y="462" width="198" height="218" rx="12" fill="#0A1431"/>
    <text x="760" y="494" class="ui" font-size="13" fill="#E8EEFF">Blocked</text>
    <text x="760" y="514" class="mono" font-size="11" fill="#E8EEFF">10:00am–1:00pm</text>

    <rect x="950" y="462" width="196" height="106" rx="12" fill="#0A1431"/>
    <rect x="950" y="574" width="196" height="106" rx="12" fill="#0A1431"/>
    <rect x="950" y="686" width="196" height="106" rx="12" fill="#0A1431"/>
    <text x="966" y="494" class="ui" font-size="13" fill="#E8EEFF">Blocked</text>
    <text x="966" y="514" class="mono" font-size="11" fill="#E8EEFF">10:00am–11:00am</text>
  </g>

  <g transform="translate(390 170) rotate(-2.5 860 430)" filter="url(#shadowDeep)">
    <rect x="0" y="0" width="1720" height="920" rx="26" fill="#F6F4EF" stroke="#1A1A1A" stroke-opacity="0.17"/>

    <rect x="0" y="0" width="1720" height="112" rx="26" fill="#F6F4EF"/>
    <line x1="0" y1="112" x2="1720" y2="112" stroke="#1A1A1A" stroke-opacity="0.1"/>
    <rect x="0" y="0" width="72" height="920" fill="#ECEBE7"/>
    <line x1="72" y1="0" x2="72" y2="920" stroke="#1A1A1A" stroke-opacity="0.1"/>

    <text x="104" y="62" class="display" font-size="34" fill="#1A1A1A">Book Studio</text>
    <text x="104" y="96" class="ui" font-size="16" fill="#1A1A1A" fill-opacity="0.5">Click and drag on the calendar to select a time slot (30-minute increments).</text>

    <circle cx="36" cy="56" r="9" fill="#1A1A1A" fill-opacity="0.45"/>
    <rect x="26" y="160" width="20" height="20" rx="5" fill="#1A1A1A" fill-opacity="0.24"/>
    <rect x="26" y="204" width="20" height="20" rx="5" fill="#1A1A1A" fill-opacity="0.24"/>
    <rect x="26" y="248" width="20" height="20" rx="5" fill="#1A1A1A" fill-opacity="0.24"/>
    <rect x="26" y="292" width="20" height="20" rx="5" fill="#1A1A1A" fill-opacity="0.24"/>
    <rect x="26" y="336" width="20" height="20" rx="5" fill="#1A1A1A" fill-opacity="0.24"/>

    <rect x="101" y="136" width="1560" height="752" rx="16" fill="#F1E4E8"/>
    <text x="122" y="180" class="display" font-size="42" fill="#1A1A1A">Mar 29 – Apr 4, 2026</text>
    <text x="124" y="207" class="ui" font-size="15" fill="#1A1A1A" fill-opacity="0.6">Mar 29 to Apr 4 • 90 day booking reach</text>

    <rect x="1228" y="158" width="250" height="34" rx="16" fill="#E2BD93" stroke="#D2A878"/>
    <text x="1250" y="181" class="ui" font-size="12" fill="#5D391B">Peak Mon, Tue, Wed, Thu 10 AM–4 PM</text>
    <rect x="1492" y="158" width="150" height="34" rx="16" fill="#E7CBD2"/>
    <text x="1516" y="181" class="ui" font-size="12" fill="#6D3240">Updated 3:53 PM</text>

    <rect x="116" y="228" width="52" height="42" rx="10" fill="#1D2636"/>
    <text x="136" y="255" class="ui" font-size="21" fill="#FCFAED">‹</text>
    <rect x="172" y="228" width="52" height="42" rx="10" fill="#1D2636"/>
    <text x="192" y="255" class="ui" font-size="21" fill="#FCFAED">›</text>
    <rect x="232" y="228" width="78" height="42" rx="14" fill="#364155"/>
    <text x="251" y="255" class="ui" font-size="17" fill="#FCFAED">Today</text>

    <rect x="1452" y="228" width="62" height="42" rx="16" fill="#1D2636"/>
    <text x="1468" y="255" class="ui" font-size="17" fill="#FCFAED">Month</text>
    <rect x="1518" y="228" width="62" height="42" rx="16" fill="#FC3F64"/>
    <text x="1540" y="255" class="ui" font-size="17" fill="#FCFAED">Week</text>
    <rect x="1584" y="228" width="54" height="42" rx="16" fill="#1D2636"/>
    <text x="1604" y="255" class="ui" font-size="17" fill="#FCFAED">Day</text>

    <rect x="116" y="276" width="1540" height="592" rx="12" fill="#FCFAED" stroke="#1A1A1A" stroke-opacity="0.1"/>
    <rect x="116" y="276" width="252" height="592" fill="#F0D5DC" fill-opacity="0.65"/>

    <line x1="368" y1="276" x2="368" y2="868" stroke="#1A1A1A" stroke-opacity="0.11"/>
    <line x1="572" y1="276" x2="572" y2="868" stroke="#1A1A1A" stroke-opacity="0.11"/>
    <line x1="776" y1="276" x2="776" y2="868" stroke="#1A1A1A" stroke-opacity="0.11"/>
    <line x1="980" y1="276" x2="980" y2="868" stroke="#1A1A1A" stroke-opacity="0.11"/>
    <line x1="1184" y1="276" x2="1184" y2="868" stroke="#1A1A1A" stroke-opacity="0.11"/>
    <line x1="1388" y1="276" x2="1388" y2="868" stroke="#1A1A1A" stroke-opacity="0.11"/>

    <line x1="116" y1="340" x2="1656" y2="340" stroke="#1A1A1A" stroke-opacity="0.08"/>
    <line x1="116" y1="404" x2="1656" y2="404" stroke="#1A1A1A" stroke-opacity="0.08"/>
    <line x1="116" y1="468" x2="1656" y2="468" stroke="#1A1A1A" stroke-opacity="0.08"/>
    <line x1="116" y1="532" x2="1656" y2="532" stroke="#1A1A1A" stroke-opacity="0.08"/>
    <line x1="116" y1="596" x2="1656" y2="596" stroke="#1A1A1A" stroke-opacity="0.08"/>
    <line x1="116" y1="660" x2="1656" y2="660" stroke="#1A1A1A" stroke-opacity="0.08"/>
    <line x1="116" y1="724" x2="1656" y2="724" stroke="#1A1A1A" stroke-opacity="0.08"/>
    <line x1="116" y1="788" x2="1656" y2="788" stroke="#1A1A1A" stroke-opacity="0.08"/>
    <line x1="116" y1="852" x2="1656" y2="852" stroke="#1A1A1A" stroke-opacity="0.08"/>

    <rect x="368" y="596" width="612" height="196" fill="url(#peakStripe)"/>
    <rect x="552" y="294" width="14" height="308" rx="7" fill="#F09C0B"/>
    <rect x="344" y="800" width="14" height="108" rx="7" fill="#F09C0B"/>

    <text x="222" y="293" class="ui" font-size="15" fill="#1A1A1A" fill-opacity="0.68">Sun, Mar 29</text>
    <text x="422" y="293" class="ui" font-size="15" fill="#1A1A1A" fill-opacity="0.68">Mon, Mar 30</text>
    <text x="626" y="293" class="ui" font-size="15" fill="#1A1A1A" fill-opacity="0.68">Tue, Mar 31</text>
    <text x="830" y="293" class="ui" font-size="15" fill="#1A1A1A" fill-opacity="0.68">Wed, Apr 1</text>
    <text x="1034" y="293" class="ui" font-size="15" fill="#1A1A1A" fill-opacity="0.68">Thu, Apr 2</text>
    <text x="1238" y="293" class="ui" font-size="15" fill="#1A1A1A" fill-opacity="0.68">Fri, Apr 3</text>
    <text x="1442" y="293" class="ui" font-size="15" fill="#1A1A1A" fill-opacity="0.68">Sat, Apr 4</text>

    <text x="128" y="344" class="mono" font-size="12" fill="#1A1A1A" fill-opacity="0.56">12am</text>
    <text x="128" y="408" class="mono" font-size="12" fill="#1A1A1A" fill-opacity="0.56">2am</text>
    <text x="128" y="472" class="mono" font-size="12" fill="#1A1A1A" fill-opacity="0.56">4am</text>
    <text x="128" y="536" class="mono" font-size="12" fill="#1A1A1A" fill-opacity="0.56">6am</text>
    <text x="128" y="600" class="mono" font-size="12" fill="#1A1A1A" fill-opacity="0.56">8am</text>
    <text x="128" y="664" class="mono" font-size="12" fill="#1A1A1A" fill-opacity="0.56">10am</text>
    <text x="128" y="728" class="mono" font-size="12" fill="#1A1A1A" fill-opacity="0.56">12pm</text>
    <text x="128" y="792" class="mono" font-size="12" fill="#1A1A1A" fill-opacity="0.56">2pm</text>
    <text x="128" y="856" class="mono" font-size="12" fill="#1A1A1A" fill-opacity="0.56">4pm</text>

    <rect x="560" y="608" width="194" height="108" rx="12" fill="#091734"/>
    <text x="576" y="636" class="ui" font-size="13" fill="#E6ECFF">Blocked</text>
    <text x="576" y="656" class="mono" font-size="11" fill="#E6ECFF">10:00am–11:00am</text>

    <rect x="560" y="724" width="194" height="108" rx="12" fill="#091734"/>
    <text x="576" y="752" class="ui" font-size="13" fill="#E6ECFF">Blocked</text>
    <text x="576" y="772" class="mono" font-size="11" fill="#E6ECFF">12:00pm–1:00pm</text>

    <rect x="764" y="608" width="194" height="216" rx="12" fill="#091734"/>
    <text x="780" y="636" class="ui" font-size="13" fill="#E6ECFF">Blocked</text>
    <text x="780" y="656" class="mono" font-size="11" fill="#E6ECFF">10:00am–1:00pm</text>

    <rect x="968" y="608" width="194" height="108" rx="12" fill="#091734"/>
    <text x="984" y="636" class="ui" font-size="13" fill="#E6ECFF">Blocked</text>
    <text x="984" y="656" class="mono" font-size="11" fill="#E6ECFF">10:00am–11:00am</text>

    <rect x="968" y="724" width="194" height="108" rx="12" fill="#091734"/>
    <text x="984" y="752" class="ui" font-size="13" fill="#E6ECFF">Blocked</text>
    <text x="984" y="772" class="mono" font-size="11" fill="#E6ECFF">12:00pm–1:00pm</text>

    <rect x="1376" y="676" width="194" height="108" rx="12" fill="#091734"/>
    <text x="1392" y="704" class="ui" font-size="13" fill="#E6ECFF">Blocked</text>
    <text x="1392" y="724" class="mono" font-size="11" fill="#E6ECFF">11:00am–12:00pm</text>
  </g>

  <text x="112" y="1320" class="ui" font-size="18" fill="#1A1A1A" fill-opacity="0.56">
    Concept visualization • not a real booking screen capture • aligned to FO Studio’s actual calendar patterns and controls.
  </text>
</svg>
